<svg xmlns="http://www.w3.org/2000/svg" xmlns:xlink="http://www.w3.org/1999/xlink" viewBox="0 0 370.06 91.77"><defs><style>.cls-1{fill:#fff;}.cls-2{fill:#7b61ff;}.cls-3{fill:url(#linear-gradient);}</style><linearGradient id="linear-gradient" x1="80.26" x2="80.26" y2="77.56" gradientUnits="userSpaceOnUse"><stop offset="0" stop-color="#7b61ff" stop-opacity="0"/><stop offset="0.12" stop-color="#7b61ff" stop-opacity="0.02"/><stop offset="0.25" stop-color="#7b61ff" stop-opacity="0.07"/><stop offset="0.37" stop-color="#7b61ff" stop-opacity="0.15"/><stop offset="0.5" stop-color="#7b61ff" stop-opacity="0.26"/><stop offset="0.63" stop-color="#7b61ff" stop-opacity="0.41"/><stop offset="0.76" stop-color="#7b61ff" stop-opacity="0.59"/><stop offset="0.89" stop-color="#7b61ff" stop-opacity="0.8"/><stop offset="1" stop-color="#7b61ff"/></linearGradient></defs><g id="Layer_2" data-name="Layer 2"><g id="Layer_1-2" data-name="Layer 1"><path class="cls-1" d="M125.56,29.18C125.56,16,135.25,6.31,149,6.31c10.76,0,19,5.92,22.13,14.87h-9.55c-2.36-4.24-6.93-6.87-12.58-6.87-8.74,0-14.66,6.26-14.66,14.87S140.23,44.11,149,44.11c6.86,0,11.91-3.16,14.06-9.15H146.28V27.3h26v4.1c-1,12-10.42,20.65-23.34,20.65C135.25,52.05,125.56,42.36,125.56,29.18Z"/><path class="cls-1" d="M177.49,31.87c0-10,5.92-14.8,14.59-14.8S206.61,21.85,206.61,32v.21h-7.93v-.34c0-5.38-2.69-7.33-6.6-7.33s-6.59,1.95-6.59,7.33V51.18h-8Z"/><path class="cls-1" d="M209.57,34.9c0-10.56,7.4-17.83,18-17.83s17.69,7.06,17.69,17.76V51.18h-7.33V44.65c-2,4.91-6.53,7.4-11.77,7.4C218,52.05,209.57,46.27,209.57,34.9Zm27.65-.34c0-5.85-3.9-10-9.76-10s-9.82,4.17-9.82,10,4,10,9.82,10S237.22,40.41,237.22,34.56Z"/><path class="cls-1" d="M247.91,18h8.74l9.22,25.89L275.08,18h8.55L270.58,51.18H261Z"/><path class="cls-1" d="M287.93,8.33a5.31,5.31,0,1,1,10.62,0,5.31,5.31,0,1,1-10.62,0ZM289.2,18h8V51.18h-8Z"/><path class="cls-1" d="M304.94,38.4V6.17h8V18H330.1v7.26H313V38.4c0,4.43,2.29,6.18,5.58,6.18s5.58-1.68,5.58-6.18v-.88h8v.88c0,9.21-5.52,13.65-13.59,13.65S304.94,47.61,304.94,38.4Z"/><path class="cls-1" d="M362,18V34.83c0,6.18-3.48,9.35-8.4,9.35s-8.41-3-8.41-9.35V18h-8V34.83c0,11.84,7.26,16.82,14.94,16.82A10.72,10.72,0,0,0,362,46.07v4.16c0,6.41-3,9-8.4,9.08v6.94c9.15,0,16.42-4.71,16.42-16.21V18Z"/><path class="cls-1" d="M137.62,69.27h-5.91V67.73h13.6v1.54H139.4V84.55h-1.78Z"/><path class="cls-1" d="M169.4,67.73V84.55h-1.75V76.79H157.12v7.76h-1.78V67.73h1.78v7.5h10.53v-7.5Z"/><path class="cls-1" d="M194,83v1.54H182.08V67.73h11.53v1.54h-9.75v6h8.7v1.51h-8.7V83Z"/><path class="cls-1" d="M217.25,82.51l.69-1.37a8.26,8.26,0,0,0,5.55,2c3.15,0,4.52-1.32,4.52-3,0-4.61-10.35-1.78-10.35-8,0-2.48,1.92-4.61,6.2-4.61a9.57,9.57,0,0,1,5.21,1.48l-.6,1.42a8.73,8.73,0,0,0-4.61-1.39c-3.08,0-4.45,1.37-4.45,3.05,0,4.61,10.36,1.83,10.36,7.95,0,2.48-2,4.59-6.28,4.59A9.14,9.14,0,0,1,217.25,82.51Z"/><path class="cls-1" d="M243.86,69.27H238V67.73h13.6v1.54h-5.91V84.55h-1.78Z"/><path class="cls-1" d="M261.11,77.36V67.73h1.78v9.56c0,4,1.87,5.82,5.14,5.82s5.17-1.83,5.17-5.82V67.73h1.73v9.63c0,4.83-2.6,7.33-6.9,7.33S261.11,82.19,261.11,77.36Z"/><path class="cls-1" d="M287.49,67.73h6.85c5.38,0,9,3.46,9,8.41s-3.63,8.41-9,8.41h-6.85ZM294.24,83c4.47,0,7.35-2.83,7.35-6.87s-2.88-6.87-7.35-6.87h-5V83Z"/><path class="cls-1" d="M314.53,67.73h1.78V84.55h-1.78Z"/><path class="cls-1" d="M327.51,76.14a8.83,8.83,0,1,1,8.84,8.55A8.46,8.46,0,0,1,327.51,76.14Zm15.88,0a7.07,7.07,0,1,0-7,7A6.82,6.82,0,0,0,343.39,76.14Z"/><path class="cls-2" d="M32.75,2.35A32.75,32.75,0,1,0,65.5,35.1,32.79,32.79,0,0,0,32.75,2.35ZM54.23,35.1A21.48,21.48,0,1,1,32.75,13.62,21.5,21.5,0,0,1,54.23,35.1Z"/><rect class="cls-2" x="3" y="77.85" width="59.5" height="12.21"/><path class="cls-2" d="M88.07,77.56v7.11c0,3.92-3.5,7.1-7.82,7.1s-7.81-3.18-7.81-7.1V77.56Z"/><path class="cls-3" d="M88.07,6.75V77.56H72.44V6.75C72.44,3,75.94,0,80.25,0S88.07,3,88.07,6.75Z"/></g></g></svg>